{"title":"SHREK THE THIRD (2007) [ HINDI] [DVD RIP]  [SIPPY GREWAL]","uid":5698333,"size":787190078,"categoryP":"other","categoryS":"other","magnet":"?xt=urn:btih:5de63f2dc02634509c478baf6ffc7fc7718d0809&amp;dn=SHREK+THE+THIRD+%282007%29+%5B+HINDI%5D+%5BDVD+RIP%5D++%5BSIPPY+GREWAL%5D&amp;tr=udp%3A%2F%2Ftracker.openbittorrent.com%3A80&amp;tr=udp%3A%2F%2Fopen.demonii.com%3A1337&amp;tr=udp%3A%2F%2Ftracker.coppersurfer.tk%3A6969&amp;tr=udp%3A%2F%2Fexodus.desync.com%3A6969","seeders":0,"leechers":0,"uploader":null,"files":3,"time":1279397042,"description":"Title: SHREK THE THIRD (2007) \nDirectors:Chris Miller\nRaman Hui (co-director)\nRelease Date:1 June 2007 (India) \nLanguage : Hindi\nGenre:Animation | Adventure | Comedy | Family | Fantasy\nFormat : MPEG-PS \nFile size : 751 MiB \nDuration : 41mn 43s \nOverall bit rate : 2 515 Kbps \nCountry:USA\n\n\nCast :\n\nMike Myers ...  Shrek (voice) \nEddie Murphy ...  Donkey (voice) \nCameron Diaz ...  Princess Fiona (voice) \nAntonio Banderas ...  Puss in Boots (voice) \nJulie Andrews ...  Queen (voice) \nJohn Cleese ...  King (voice) \nRupert Everett ...  Prince Charming (voice) \nEric Idle ...  Merlin (voice) \nJustin Timberlake ...  Artie (voice) \nSusanne Blakeslee ...  Evil Queen (voice) \nCody Cameron ...  Pinocchio / Three Pigs (voice) \nLarry King ...  Doris (voice) \nChristopher Knights ...  Blind Mice / Heckler / Evil Tree #2 / Guard #2 (voice) \nJohn Krasinski ...  Lancelot (voice) \nIan McShane ...  Captain Hook (voice)\n\n\nPlot :\n\n When his new father-in-law, King Harold falls ill, Shrek is looked at as the heir to the land\n of Far, Far Away. Not one to give up his beloved swamp, Shrek recruits his friends Donkey\n and Puss in Boots to install the rebellious Artie as the new king. Princess Fiona, however,\n rallies a band of royal girlfriends to fend off a coup d'etat by the jilted Prince Charming. \n\n\n\nVideo :\n \nID : 224 (0xE0) \nFormat : MPEG Video \nFormat version : Version 2 \nFormat settings, BVOP : Yes \nFormat settings, Matrix : Default \nDuration : 41mn 43s \nBit rate mode : Constant \nBit rate : 2 241 Kbps \nNominal bit rate : 1 120 Kbps \nWidth : 352 pixels \nHeight : 288 pixels \nDisplay aspect ratio : 1.222 \nFrame rate : 25.000 fps \nStandard : PAL \nColor space : YUV \nBit depth : 8 bits \nScan type : Progressive \nBits/(Pixel*Frame) : 0.884 \nStream size : 669 MiB (89%) \n\nAudio \nID : 192 (0xC0) \nFormat : MPEG Audio \nFormat version : Version 1 \nFormat profile : Layer 2 \nDuration : 41mn 42s \nBit rate mode : Constant \nBit rate : 224 Kbps \nChannel(s) : 2 channels \nSampling rate : 48.0 KHz \nVideo delay : -80ms \nStream size : 66.8 MiB (9%)","torrent":{"xt":"urn:btih:5de63f2dc02634509c478baf6ffc7fc7718d0809","amp;dn":"SHREK+THE+THIRD+%282007%29+%5B+HINDI%5D+%5BDVD+RIP%5D++%5BSIPPY+GREWAL%5D","amp;tr":["udp%3A%2F%2Ftracker.openbittorrent.com%3A80","udp%3A%2F%2Fopen.demonii.com%3A1337","udp%3A%2F%2Ftracker.coppersurfer.tk%3A6969","udp%3A%2F%2Fexodus.desync.com%3A6969"],"infoHash":"5de63f2dc02634509c478baf6ffc7fc7718d0809","infoHashBuffer":{"type":"Buffer","data":[93,230,63,45,192,38,52,80,156,71,139,175,111,252,127,199,113,141,8,9]},"announce":[],"urlList":[]}}